<svg xmlns="http://www.w3.org/2000/svg" width="163.948" height="121.759" viewBox="0 0 163.948 121.759">
  <g id="Group_1" data-name="Group 1" transform="translate(-658.713 -398.01)">
    <path id="path69164" d="M131.953,44.713l21.609-4.329L97.782,98.1ZM10.31,39.071l19.842,4.421,33.07,52.854ZM80.89,4.741c27.682,0,43.8,2.883,47.742,4.74-2.639,1.243-10.73,2.941-24.077,3.933h-.038l-.049.008c-6.591.486-14.451.8-23.579.8-27.682,0-43.8-2.882-47.743-4.74,3.948-1.858,20.061-4.74,47.743-4.74m53.786,10.669L155.74,35.069l-22.645,4.537ZM84.831,48.387l40.148-2.972L83.925,109.557Zm-5.778-.059-.911,61.49L37.179,44.344ZM29,38.322,8.065,33.656l19.12-18.229Zm5.589-2.539L32.908,14.568a71.352,71.352,0,0,0,11.241,2.278c3.146.437,6.623.811,10.346,1.116Zm41.839,7.522L38.091,39.658,59.478,20.515Zm5.557-1.629L64.829,18.609c5.125.231,10.526.355,16.061.355,6.392,0,12.61-.162,18.42-.469Zm44.35-1.121L87.445,43.434,105.1,19.819Zm1.315-6.086L110.451,17.677c2.534-.245,4.945-.522,7.18-.832a70.808,70.808,0,0,0,11.312-2.3Zm35.583.406L134.861,8.4c-1.022-2.858-6.334-4.776-17.23-6.288A282.24,282.24,0,0,0,80.89,0,281.928,281.928,0,0,0,44.149,2.116C33.235,3.63,27.925,5.552,26.916,8.418L.7,33.415a2.05,2.05,0,0,0-.112,2.977l77.988,84.424a2.693,2.693,0,0,0,.546.456l0,0,.007,0h0l0,0h.006a2.623,2.623,0,0,0,.252.14h0l.006,0,.006,0h0a3.39,3.39,0,0,0,1.459.33h.014a3.425,3.425,0,0,0,1.174-.2h0l.007,0h0a3.065,3.065,0,0,0,.717-.376l0,0a2.636,2.636,0,0,0,.371-.323l80.163-82.937a2.055,2.055,0,0,0-.095-3.037" transform="translate(658.713 398.01)" fill="#f0f0f8"/>
  </g>
</svg>
