<svg
      xmlns="http://www.w3.org/2000/svg"
      width="428.055"
      height="395.418"
      viewBox="0 0 428.055 395.418"
    >
      <g id="Group_2" data-name="Group 2" transform="translate(-126.605 -57.255)">
        <path
          id="Path_5"
          data-name="Path 5"
          d="M715.391,417.655c0,104.6-84.785,189.35-189.346,189.308-104.513,0-189.27-84.758-189.27-189.308a189.325,189.325,0,0,1,356.246-89.322,186.778,186.778,0,0,1,10.465,23.106c.41,1.1.81,2.208,1.2,3.323v.011q2.6,7.351,4.586,14.976a189.323,189.323,0,0,1,6.121,47.905Z"
          transform="translate(-187.399 -154.291)"
          fill="#3f3d56"
        />
        <path
          id="Path_6"
          data-name="Path 6"
          d="M505.371,289.931a63.517,63.517,0,0,0-55.761-2.281c-7.8,3.393-16.006,9.48-18.607,20.471,10.519-6.208,24.136,3.6,26.842,19.336l-.632.174c-1.43,10.9,1.762,22.764,7.941,29.522.811-7.02,5.427-11.8,9.967-14.781s9.562-5.152,13.027-10.282c4.108-6.081,5.151-14.969,6.783-23.077S499.659,292.19,505.371,289.931Z"
          transform="translate(-187.399 -154.291)"
          fill="#fff"
        />
        <path
          id="Path_7"
          data-name="Path 7"
          d="M446.489,382.675c-2.913,4.375-6.8,7.12-10.3,10.538s-6.794,8.056-7.488,14c-.442,3.807.242,7.677.147,11.527s-1.378,8.182-4,9.139c-4.133,1.493-7.288-6.184-11.537-6.72-3.376-.421-6.415,4.891-5.437,9.5s5.574,6.647,8.214,3.639c2.387,4.007.7,11.274-2.882,12.5-.379,2.524-.757,5.038-1.125,7.562-9.066-6.342-18.226-12.789-25.935-22.075a67.007,67.007,0,0,1-15.271-36.095c-1-10.675.484-22.885-4.417-31.1-3.923-6.573-10.654-8.025-16.712-7.614-1.1.074-2.219.2-3.323.336a187.236,187.236,0,0,1,13.556-31.026,13.282,13.282,0,0,0,3.4-2.114c5.637-4.785,8.14-14.472,12.715-21.171q.442-.647.915-1.262c4.68-6.111,10.948-9.255,17.006-12.179,13.409-6.51,27.208-13.1,41.364-12.2l-4.028.389Q424.3,298,417.241,317.753q-1.073,3.029-2.166,6.068c-2.671,7.488-5.427,15.46-5.017,23.842.242,4.964,1.967,10.265,5.248,11.968,3.06,1.578,6.4-.358,9.36-2.272,1.252-.8,2.493-1.6,3.744-2.408,4.491-2.892,9.465-5.858,14.209-3.923,4.344,1.767,7.551,7.667,8.161,14.03a28.049,28.049,0,0,1-4.291,17.616Z"
          transform="translate(-187.399 -154.291)"
          fill="#fff"
        />
        <path
          id="Path_8"
          data-name="Path 8"
          d="M473.2,472.572l-39.348-24.227.223-.573c-8.155,3.106-11.54,17.6-10.193,29.456s5.917,22.451,8.226,34a90.252,90.252,0,0,1-3.4,47.358,387.842,387.842,0,0,0,45.56-62.781,33.589,33.589,0,0,0,4.121-9.138c.833-3.442.705-7.58-.964-10.34a11.511,11.511,0,0,0-4.223-3.757Z"
          transform="translate(-187.399 -154.291)"
          fill="#fff"
        />
        <path
          id="Path_9"
          data-name="Path 9"
          d="M421.435,325.653c-1.393,3.131-1.929,7.307-.665,10.547,1.291,3.309,4.019,4.8,6.532,6.05l7.247,3.592c2.411,1.2,5.01,2.4,7.468,1.419,2.964-1.186,5.02-5.833,4.488-10.148-.566-4.591-3.46-7.749-6.136-10.439l-11.237-11.291-2.111,2.585A28.191,28.191,0,0,0,421.435,325.653Z"
          transform="translate(-187.399 -154.291)"
          fill="#fff"
        />
        <path
          id="Path_10"
          data-name="Path 10"
          d="M676.541,374.735l9.781,2.3c-.568,11.012-6.026,21.2-13.346,24.894-3.05,1.536-6.447,2.1-8.971,4.975-2.282,2.608-3.439,6.668-4.5,10.549l-5.585,20.319c-2,7.3-4.564,15.408-9.76,18.037-4.459,2.261-9.56-.5-12.989-5.143s-5.521-10.875-7.551-16.953c.126,6.626-2.955,13.125-7.32,15.429s-9.7.221-12.621-4.922c-2.1-3.692-2.976-8.561-5.038-12.305s-6.384-5.89-8.635-2.377c-1.483,2.335-1.294,5.911-2.03,8.876-1.146,4.606-4.617,7.5-8.056,7.751s-6.773-1.725-9.644-4.407c-5.921-5.553-10.286-14.366-11.979-24.158-.747-4.365-.957-9.118.337-13.21s4.417-7.246,7.52-6.468c2.04-4.312-1.988-10.033-5.616-9.529s-6.489,4.407-9.476,7.4-7.141,5.174-10.138,2.2c.021,2.766-2.23,4.6-4.175,4.365s-3.66-1.777-5.437-2.882c-6.868-4.281-15.586-1.441-20.466,6.657,3.05-12.978,7.52-27.87,16.89-30.92,3.828-1.251,8-.221,11.621-2.387,6.405-3.839,7.7-18.342,2.167-24.326.7,5.658.568,12.263-2.419,16.133s-9.255,1.346-8.876-4.375c-.862,3.944-5.153,4.543-7.131,1.514s-1.819-7.982-.41-11.6,3.807-6.216,6.131-8.708c5-5.353,10.065-10.77,15.849-14.135s12.484-4.5,18.289-1.157c3.061,1.767,5.753,4.712,8.877,6.268s7.089,1.367,9.16-2.293c2.324-4.081,1.23-10.139,2.093-15.239,1.546-9.013,10.559-13.23,15.555-7.278-3.734-.957-7.593,3.46-8.056,8.813s2.23,10.759,5.848,12.379c6.079,2.692,12.031-4.081,16.628-10.349q7.194-9.844,14.408-19.677a23.78,23.78,0,0,1,2.577-3.134,8.291,8.291,0,0,1,11.327-.231c4.859,3.965,7.141,12.095,11.127,17.69,5.784,8.13,14.44,10.107,22.5,11.685q9.008,1.751,18.026,3.523a186.789,186.789,0,0,1,10.464,23.106C693.3,355.762,683.913,363.849,676.541,374.735Z"
          transform="translate(-187.399 -154.291)"
          fill="#fff"
        />
        <path
          id="Path_11"
          data-name="Path 11"
          d="M695.955,501.276A188.54,188.54,0,0,1,680.285,527.5c-3.786-1.62-7.856,1.273-11.4,3.986-3.7,2.84-8.151,5.606-11.947,3.018-3.881-2.65-5.132-10.065-3.9-15.944s4.3-10.538,7.278-14.976c3.155-4.712,6.531-9.6,10.917-11.432s10.044.757,11.327,7l3.113-.105c-1.746-2.4-.831-7.362,1.515-8.235,2.7-1.02,5.048,2.692,6.647,5.974C694.546,498.268,695.272,499.762,695.955,501.276Z"
          transform="translate(-187.399 -154.291)"
          fill="#fff"
        />
        <path
          id="Path_12"
          data-name="Path 12"
          d="M576.727,456.853c-6.691.421-11.992-7.817-15.514-15.92s-6.736-17.371-12.773-21.5c-3.45-2.357-7.383-2.68-11.125-3.822s-7.659-3.505-9.447-8.318l-4.245-1.715c-5.606,3.152-11.285,6.362-16.116,11.491a36.018,36.018,0,0,0-9.6,20.993c-.811,8.5,2.183,17.97,7.778,21.161,4.421,2.522,9.567.932,14.045,3.241,5.595,2.884,8.916,11.264,10.173,19.537s.939,16.871,1.838,25.238,3.379,17.073,8.509,21.361c6.42,5.366,15.841.907,18.722-8.86,1.413-4.791,1.364-10.2,2.421-15.171,1.861-8.758,6.883-15.256,10.866-22.441S579.376,465.191,576.727,456.853Z"
          transform="translate(-187.399 -154.291)"
          fill="#fff"
        />
        <path
          id="Path_13"
          data-name="Path 13"
          d="M510.607,370.79a17.864,17.864,0,0,1,1.742,1.85,6.077,6.077,0,0,1-.107,6.276,5.839,5.839,0,0,0,4.181-2.125,26.878,26.878,0,0,0,3.206-4.516c.682-1.113,1.408-2.618.945-3.939-.316-.9-1.064-1.287-1.588-1.965-.831-1.075-1.036-2.783-1.466-4.259-.928-3.188-3.153-5.532-5.567-5.867l.335.064c-1.009.345-1.713,1.947-1.49,3.388.2,1.312,1.046,2.4.963,3.741-.121,1.925-2.044,2.828-2.163,4.753a3.675,3.675,0,0,0,1.008,2.6Z"
          transform="translate(-187.399 -154.291)"
          fill="#fff"
        />
        <path
          id="Path_14"
          data-name="Path 14"
          d="M499.142,338.082l.03-.006a5.355,5.355,0,0,0,.571-.608Z"
          transform="translate(-187.399 -154.291)"
          fill="#e6e6e6"
        />
        <path
          id="Path_15"
          data-name="Path 15"
          d="M501.149,347.116c1.479-.951,2.306-3.582,1.817-5.785s-2.206-3.66-3.793-3.256a3.867,3.867,0,0,1-3.595,1.058c-.981-.253-2.058-.9-2.909-.164a4.4,4.4,0,0,0-.991,1.935l-.945,2.9a1.83,1.83,0,0,0-.112,1.1.931.931,0,0,0,.714.568L497,347.143C498.381,347.549,499.868,347.94,501.149,347.116Z"
          transform="translate(-187.399 -154.291)"
          fill="#fff"
        />
        <path
          id="Path_16"
          data-name="Path 16"
          d="M643.805,471.848l-2.62-4.29a14.334,14.334,0,0,0-3.453-4.336,3.06,3.06,0,0,0-4.356.436l.106.817c1.991,2.5,4.1,5.273,4.6,8.98.2,1.462.13,2.974.3,4.442s.671,2.99,1.618,3.623c1.375.919,2.99-.436,3.969-2.089a7.194,7.194,0,0,0,1.115-4.579,8.031,8.031,0,0,0-1.286-3Z"
          transform="translate(-187.399 -154.291)"
          fill="#fff"
        />
        <path
          id="Path_17"
          data-name="Path 17"
          d="M682.68,417.231l.758-4.97a14.333,14.333,0,0,0,.15-5.541,3.06,3.06,0,0,0-3.614-2.471l-.445.693c-.085,3.193-.261,6.673-2.262,9.834-.789,1.246-1.816,2.359-2.628,3.594s-1.412,2.72-1.095,3.814c.461,1.589,2.569,1.592,4.382.958a7.193,7.193,0,0,0,3.8-2.785,8.031,8.031,0,0,0,.951-3.127Z"
          transform="translate(-187.399 -154.291)"
          fill="#e6e6e6"
        />
        <path
          id="Path_18"
          data-name="Path 18"
          d="M657.508,473.709c.427-1.228-.19-2.636-.32-3.993a8.765,8.765,0,0,1,1.334-4.969,16.155,16.155,0,0,0,2.078-4.556,3.812,3.812,0,0,0-.1-2.231c-.289-.65-.99-.946-1.391-.431l.86.554a7.828,7.828,0,0,0-3.489.169,4.318,4.318,0,0,0-2.644,2.981,18.44,18.44,0,0,1-.693,3.092c-.513,1.054-1.505,1.4-2.129,2.33a5.57,5.57,0,0,0,.088,5.292,6.177,6.177,0,0,0,3.494,2.748C655.645,475.069,657.028,475.089,657.508,473.709Z"
          transform="translate(-187.399 -154.291)"
          fill="#fff"
        />
        <path
          id="Path_19"
          data-name="Path 19"
          d="M681.91,481.072a12.005,12.005,0,0,0,1.512,2.775c1.168,1.177,2.756.454,4.173.168a7.216,7.216,0,0,1,6.864,2.753,17.471,17.471,0,0,0-10.048-12.536c-3.341-1.362-6.86-1.494-10.334-1.616l-.6.154C675.006,477.22,679.808,477.121,681.91,481.072Z"
          transform="translate(-187.399 -154.291)"
          fill="#fff"
        />
        <path
          id="Path_20"
          data-name="Path 20"
          d="M578.558,490.177l.009.019.175-.336Z"
          transform="translate(-187.399 -154.291)"
          fill="#e6e6e6"
        />
        <path
          id="Path_21"
          data-name="Path 21"
          d="M574.856,497.342a32.881,32.881,0,0,0-2.077,4.562,39.714,39.714,0,0,0-1.505,7.806c-.188,1.5-.246,3.426.7,4.159a1.337,1.337,0,0,0,1.749-.238,6.918,6.918,0,0,0,1.268-1.885,43.419,43.419,0,0,0,4.28-10.159c.9-3.744.894-8.151-.7-11.393Z"
          transform="translate(-187.399 -154.291)"
          fill="#fff"
        />
        <path
          id="Path_22"
          data-name="Path 22"
          d="M539.143,306.44a4.215,4.215,0,0,0,4.542.887,15,15,0,0,0,4.274-2.823,10.055,10.055,0,0,0,2.591-2.826,5.732,5.732,0,0,0,.53-4.366c-.585-1.712-2.07-2.285-3.38-2.674l-6.292-1.866,1.517-1.368c-1.561-.838-3.288.717-4.264,2.642a14.226,14.226,0,0,0-1.294,3.984C536.844,301.051,537.355,304.649,539.143,306.44Z"
          transform="translate(-187.399 -154.291)"
          fill="#e6e6e6"
        />
        <path
          id="Path_23"
          data-name="Path 23"
          d="M576.174,294.008a3.465,3.465,0,0,0,4.722.384,5.279,5.279,0,0,0,2.089-3.762c.148-1.65-.667-3.484-1.832-3.626l.267-1.545c-2.244-.405-5.006-.487-6.209,2.239A6.4,6.4,0,0,0,576.174,294.008Z"
          transform="translate(-187.399 -154.291)"
          fill="#e6e6e6"
        />
        <path
          id="Path_24"
          data-name="Path 24"
          d="M571.227,211.865a49.926,49.926,0,0,0-55.207,44.015c-3.091,27.4,11.344,86.9,37.662,111.528,12.392-47.189,55.815-75.179,61.56-100.336C621.381,240.191,598.627,214.955,571.227,211.865Z"
          transform="translate(-187.399 -154.291)"
          fill="#ff9c6f"
        />
        <circle
          id="b262ea8c-1946-46c9-a449-3a1996c39394"
          cx="16.282"
          cy="16.282"
          r="16.282"
          transform="translate(358.446 85.921)"
          fill="#fff"
        />
        <circle
          id="bcc29a3a-8123-4529-80aa-6f70df2823cf"
          cx="10.665"
          cy="10.665"
          r="10.665"
          transform="translate(346.943 215.265)"
          fill="#ff9c6f"
        />
        <path
          id="Path_25"
          data-name="Path 25"
          d="M575.6,244.828a16.282,16.282,0,0,1-16.773,27.913,16.28,16.28,0,0,0,11.909-29.853,16.281,16.281,0,0,1,4.863,1.94Z"
          transform="translate(-187.399 -154.291)"
          fill="#231f20"
          opacity="0.2"
          style="isolation: isolate"
        />
        <path
          id="Path_27"
          data-name="Path 27"
          d="M418.644,275.4a37.493,37.493,0,0,0-41.459,33.054c-2.321,20.576,8.519,65.257,28.283,83.754,9.306-35.437,41.915-56.457,46.23-75.349C456.309,296.668,439.22,277.717,418.644,275.4Z"
          transform="translate(-187.399 -154.291)"
          fill="#ff9c6f"
        />
        <circle
          id="b262ea8c-1946-46c9-a449-3a1996c39394-2"
          data-name="b262ea8c-1946-46c9-a449-3a1996c39394"
          cx="12.228"
          cy="12.228"
          r="12.228"
          transform="translate(212.184 142.393)"
          fill="#fff"
        />
        <circle
          id="bcc29a3a-8123-4529-80aa-6f70df2823cf-2"
          data-name="bcc29a3a-8123-4529-80aa-6f70df2823cf"
          cx="8.009"
          cy="8.009"
          r="8.009"
          transform="translate(203.546 239.526)"
          fill="#ff9c6f"
        />
        <path
          id="Path_28"
          data-name="Path 28"
          d="M421.928,300.151a12.227,12.227,0,0,1-12.6,20.961,12.226,12.226,0,0,0,8.943-22.418A12.227,12.227,0,0,1,421.928,300.151Z"
          transform="translate(-187.399 -154.291)"
          fill="#231f20"
          opacity="0.2"
          style="isolation: isolate"
        />
        <path
          id="Path_36"
          data-name="Path 36"
          d="M723.121,268.05a28.881,28.881,0,0,0-37.5,16.188c-5.885,14.825-6.86,50.228,4.091,67.972,14.081-24.459,42.568-33.491,49.595-46.661C746.817,291.476,737.946,273.935,723.121,268.05Z"
          transform="translate(-187.399 -154.291)"
          fill="#ff9c6f"
        />
        <circle
          id="b262ea8c-1946-46c9-a449-3a1996c39394-3"
          data-name="b262ea8c-1946-46c9-a449-3a1996c39394"
          cx="9.419"
          cy="9.419"
          r="9.419"
          transform="translate(514.448 127.871)"
          fill="#fff"
        />
        <circle
          id="bcc29a3a-8123-4529-80aa-6f70df2823cf-3"
          data-name="bcc29a3a-8123-4529-80aa-6f70df2823cf"
          cx="6.169"
          cy="6.169"
          r="6.169"
          transform="translate(489.358 197.585)"
          fill="#ff9c6f"
        />
        <path
          id="Path_37"
          data-name="Path 37"
          d="M720.557,287.114a9.419,9.419,0,0,1-13.6,13.034,9.417,9.417,0,0,0,11.18-14.856,9.42,9.42,0,0,1,2.42,1.821Z"
          transform="translate(-187.399 -154.291)"
          fill="#231f20"
          opacity="0.2"
          style="isolation: isolate"
        />
        <path
          id="Path_47"
          data-name="Path 47"
          d="M583.61,560.362a189.826,189.826,0,0,1-22.46-1.464c-42.116-5.056-96.67-22.633-153.611-49.492s-109.468-59.794-147.9-92.734c-18.723-16.047-33.093-31.236-42.71-45.147-10.182-14.727-14.636-27.564-13.238-38.153,2.723-20.629,26.837-25.142,46.587-25.3l.007,3c-27.121.21-43.121,8.387-45.053,23.022-2.461,18.64,17.609,47.741,55.063,79.841,38.351,32.868,90.781,65.739,147.632,92.557s111.3,44.363,153.328,49.408c41.04,4.928,65.99-2.937,68.451-21.578,2.043-15.477-11.426-38.275-37.924-64.2l.729-2.664c19.254,18.836,41.6,45.852,38.735,67.589-1.4,10.589-8.52,17.965-21.168,21.923C602.863,559.232,594.007,560.362,583.61,560.362Z"
          transform="translate(-76.832 -154.291)"
          fill="#ff9c6f"
        />
      </g>
    </svg>